<svg width="51" height="49" viewBox="0 0 51 49" fill="none" xmlns="http://www.w3.org/2000/svg">
<g clip-path="url(#clip0_5_63)">
<path d="M35.5092 16.8857L35.5092 31.2818C35.5094 31.6549 35.4331 32.0245 35.2847 32.3693C35.1362 32.7141 34.9185 33.0273 34.644 33.2912C34.3695 33.555 34.0436 33.7643 33.6849 33.907C33.3262 34.0497 32.9418 34.1231 32.5536 34.1229L14.6214 34.1329L4.17755 24.0938L14.6214 14.0547L32.564 14.0547C33.3444 14.057 34.0922 14.3559 34.644 14.8864C35.1958 15.4168 35.5069 16.1356 35.5092 16.8857V16.8857Z" stroke="#BF3838" stroke-width="2" stroke-linecap="round" stroke-linejoin="round"/>
<g clip-path="url(#clip1_5_63)">
<path d="M25.9648 24.8455L29.4639 21.8183C29.8933 21.4469 29.8933 20.8446 29.4639 20.4728L28.6862 19.8C28.2568 19.4286 27.5607 19.4286 27.1309 19.8L23.6318 22.8272L20.1327 19.8C19.7033 19.4286 19.0071 19.4286 18.5774 19.8L17.7997 20.4728C17.3703 20.8443 17.3703 21.4466 17.7997 21.8183L21.2988 24.8455L17.7997 27.8726C17.3703 28.2441 17.3703 28.8464 17.7997 29.2181L18.5774 29.8909C19.0068 30.2624 19.7033 30.2624 20.1327 29.8909L23.6318 26.8638L27.1309 29.8909C27.5603 30.2624 28.2568 30.2624 28.6862 29.8909L29.4639 29.2181C29.8933 28.8467 29.8933 28.2444 29.4639 27.8726L25.9648 24.8455Z" fill="#BF3838"/>
</g>
</g>
<defs>
<clipPath id="clip0_5_63">
<rect width="34.7675" height="34.7675" fill="white" transform="matrix(0.720941 -0.692997 0.720941 0.692997 0 24.0938)"/>
</clipPath>
<clipPath id="clip1_5_63">
<rect width="14.4865" height="13.0378" fill="white" transform="translate(16.2469 18.4566) scale(1.01956 0.980046)"/>
</clipPath>
</defs>
</svg>
