<svg width="22" height="25" viewBox="0 0 22 25" fill="none" xmlns="http://www.w3.org/2000/svg">
<path d="M21.2159 8.57955H16.9659C16.8447 7.88258 16.6212 7.26515 16.2955 6.72727C15.9697 6.18182 15.5644 5.7197 15.0795 5.34091C14.5947 4.96212 14.0417 4.67803 13.4205 4.48864C12.8068 4.29167 12.1439 4.19318 11.4318 4.19318C10.1667 4.19318 9.04545 4.51136 8.06818 5.14773C7.09091 5.77651 6.32576 6.70076 5.77273 7.92045C5.2197 9.13258 4.94318 10.6136 4.94318 12.3636C4.94318 14.1439 5.2197 15.6439 5.77273 16.8636C6.33333 18.0758 7.09848 18.9924 8.06818 19.6136C9.04545 20.2273 10.1629 20.5341 11.4205 20.5341C12.1174 20.5341 12.7689 20.4432 13.375 20.2614C13.9886 20.072 14.5379 19.7955 15.0227 19.4318C15.5152 19.0682 15.928 18.6212 16.2614 18.0909C16.6023 17.5606 16.8371 16.9545 16.9659 16.2727L21.2159 16.2955C21.0568 17.4015 20.7121 18.4394 20.1818 19.4091C19.6591 20.3788 18.9735 21.2348 18.125 21.9773C17.2765 22.7121 16.2841 23.2879 15.1477 23.7045C14.0114 24.1136 12.75 24.3182 11.3636 24.3182C9.31818 24.3182 7.49242 23.8447 5.88636 22.8977C4.2803 21.9508 3.01515 20.5833 2.09091 18.7955C1.16667 17.0076 0.704545 14.8636 0.704545 12.3636C0.704545 9.85606 1.17045 7.71212 2.10227 5.93182C3.03409 4.14394 4.30303 2.77651 5.90909 1.82954C7.51515 0.882575 9.33333 0.40909 11.3636 0.40909C12.6591 0.40909 13.8636 0.590908 14.9773 0.954544C16.0909 1.31818 17.0833 1.85227 17.9545 2.55682C18.8258 3.25379 19.5417 4.10985 20.1023 5.125C20.6705 6.13258 21.0417 7.28409 21.2159 8.57955Z" fill="#BF3838"/>
</svg>
