<svg width="25" height="24" viewBox="0 0 25 24" fill="none" xmlns="http://www.w3.org/2000/svg">
<path d="M12.5 16.2857C10.8561 16.2857 9.52379 17.5647 9.52379 19.1429C9.52379 20.721 10.8561 22 12.5 22C14.1439 22 15.4762 20.721 15.4762 19.1429C15.4762 17.5647 14.1439 16.2857 12.5 16.2857ZM12.5 7.71429C14.1439 7.71429 15.4762 6.43527 15.4762 4.85714C15.4762 3.27902 14.1439 2 12.5 2C10.8561 2 9.52379 3.27902 9.52379 4.85714C9.52379 6.43527 10.8561 7.71429 12.5 7.71429ZM21.4286 9.85714H3.57141C2.7497 9.85714 2.08331 10.4969 2.08331 11.2857V12.7143C2.08331 13.5031 2.7497 14.1429 3.57141 14.1429H21.4286C22.2503 14.1429 22.9166 13.5031 22.9166 12.7143V11.2857C22.9166 10.4969 22.2503 9.85714 21.4286 9.85714Z" fill="#BF3838"/>
</svg>
