<svg width="44" height="44" viewBox="0 0 44 44" fill="none" xmlns="http://www.w3.org/2000/svg">
<circle cx="22" cy="22" r="22" fill="#BF3838"/>
<path d="M33.0001 22.9109H11.0001C10.5967 22.9109 10.2667 23.2583 10.2667 23.6828V25.2267C10.2667 25.6513 10.5967 25.9986 11.0001 25.9986H33.0001C33.4034 25.9986 33.7334 25.6513 33.7334 25.2267V23.6828C33.7334 23.2583 33.4034 22.9109 33.0001 22.9109ZM33.0001 16.7355H11.0001C10.5967 16.7355 10.2667 17.0828 10.2667 17.5074V19.0513C10.2667 19.4758 10.5967 19.8232 11.0001 19.8232H33.0001C33.4034 19.8232 33.7334 19.4758 33.7334 19.0513V17.5074C33.7334 17.0828 33.4034 16.7355 33.0001 16.7355Z" fill="white"/>
</svg>
