<svg width="25" height="24" viewBox="0 0 25 24" fill="none" xmlns="http://www.w3.org/2000/svg">
<path d="M8.01063 7.69039C9.36642 6.38884 9.36642 4.27792 8.01063 2.97636C6.65485 1.67481 4.45597 1.67481 3.10018 2.97636C1.7444 4.27792 1.7444 6.38884 3.10018 7.69039C4.45651 8.99247 6.65485 8.99247 8.01063 7.69039ZM21.8994 16.3096C20.5436 15.0081 18.3448 15.0081 16.989 16.3096C15.6332 17.6112 15.6332 19.7221 16.989 21.0236C18.3448 22.3252 20.5436 22.3252 21.8994 21.0236C23.2558 19.7221 23.2558 17.6117 21.8994 16.3096ZM21.7942 4.25604L20.567 3.07792C19.8888 2.42689 18.7896 2.42689 18.112 3.07792L3.20598 17.3877C2.52781 18.0388 2.52781 19.094 3.20598 19.7445L4.43318 20.9226C5.11135 21.5736 6.21051 21.5736 6.88814 20.9226L21.7942 6.6128C22.4723 5.96228 22.4723 4.90708 21.7942 4.25604Z" fill="#BF3838"/>
</svg>
